<svg xmlns="http://www.w3.org/2000/svg" xmlns:xlink="http://www.w3.org/1999/xlink" viewBox="0 0 457.3 381.7">
  <defs>
    <style>
      .a {
        fill: #d9e5f5;
      }

      .b {
        fill: #f4f8fc;
      }

      .c {
        fill: #d7a4ae;
      }

      .d {
        fill: #6e76ba;
      }

      .e {
        fill: #825275;
      }

      .f {
        fill: #e9b8bf;
      }

      .g {
        fill: #495193;
      }

      .h {
        fill: #5a67a7;
      }

      .i {
        fill: #5d4669;
      }

      .j {
        fill: #93acea;
      }

      .k {
        fill: #9ac5fc;
      }

      .l {
        fill: #c6688d;
      }

      .m {
        fill: #d87597;
      }

      .n {
        fill: url(#a);
      }
    </style>
    <linearGradient id="a" data-name="Degradado sin nombre 16" x1="136.77" y1="90.07" x2="294.85" y2="90.07" gradientUnits="userSpaceOnUse">
      <stop offset="0" stop-color="#8099e3"/>
      <stop offset="1" stop-color="#93acea"/>
    </linearGradient>
  </defs>
  <title>Recurso 1</title>
  <g>
    <path class="a" d="M103.6,361c-57.6.2-74-.2-88.6-14-34.6-32.6-9.7-128.9,77.6-153.9,20.9-5.9,36.6-5.9,53-29.8,12.9-18.7,18-41.3,24.2-62.4C183.1,55.7,211.8-5.1,273.1.3c32.6,2.9,54.3,24.6,71.3,52a258.5,258.5,0,0,1,33.1,83.8c8,39.6,42.7,66.1,61.8,100.7,17.9,32.4,32.3,89.7-7,114.4C410,365.3,407.3,360,103.6,361Z"/>
    <g>
      <path class="b" d="M101.8,293.7s-15.6,3.8-25.3,1-18.3-10.9-20.4-19.5,7.3-11.9,12.8-4,9.2,20.4,32.4,19.3Z"/>
      <path class="c" d="M100.7,290.8a6.2,6.2,0,0,1,3.1-1.9c1.6-.2,3-.2,3,.4s-2.6.6-3.1,1.2c2.7.5,4.8-1,5.6-.2s-1.5,4.8-9.3,3.6"/>
      <path class="d" d="M206.4,304.3a22.6,22.6,0,0,0-16.5,4.9h-.1V271.8H152a22,22,0,0,1,5,14.8,22.7,22.7,0,0,1-20.9,21.6,22.4,22.4,0,0,1-23.8-22.4,22.1,22.1,0,0,1,4.9-14c.1-.1,0-.1,0-.1H79.5V368a13.7,13.7,0,0,0,13.7,13.7h96.6V344s.1-.1.1,0c14.7,11.8,36.6,1.1,36.4-17.6A22.5,22.5,0,0,0,206.4,304.3Z"/>
      <path class="e" d="M57.9,260.8c-2.8-2-5.6-10.6,0-14.9,2.5-1.9,9.5-1.7,11.1,2s-4.5,4.9-4.5,4.9S57.6,255.2,57.9,260.8Z"/>
      <path class="c" d="M49.8,309.6s-3.6,5,2.8,25.9c2.4,11,5.8,42.8,5.8,42.8l3.5-.6S69.6,329,65,301.9Z"/>
      <path class="b" d="M49.8,270.1c-3,5.6-8.3,18.6-7.1,40.5,1,20.4,21.4,9,23.8-15.6s-2.4-27.5-6-29.5S52.5,265.3,49.8,270.1Z"/>
      <path class="f" d="M66.7,249.5s4.5,14.4-4.6,13.6c-5.3-.9-4.1-5.2-4.1-5.2-3-.1-2.3-5.6,1.4-3.6l.4-4.2S62.5,251,66.7,249.5Z"/>
      <polygon class="f" points="58 257.9 54.9 266 62.4 267.1 64.3 258.4 58 257.9"/>
      <path class="f" d="M42.3,306.4s-3.7,6.9.1,28.5C43.6,346,43,378,43,378h3.6s11.3-34.5,10-61.8Z"/>
      <path class="b" d="M86.7,307.8s-15.9-2.2-24-8.4-12.9-16.8-11.8-25.6,11.2-8.4,13.4,1,1,22.4,23,29.9Z"/>
      <path class="f" d="M46.3,377.4s.2,1.5,4.2,2.4a2.5,2.5,0,0,1,1.9,1.9H42.8s-1.2-1,.2-3.7Z"/>
      <path class="c" d="M61.7,377.4s.1,1.5,4.1,2.4a2.5,2.5,0,0,1,1.9,1.9H58.1s-1.2-1,.2-3.7Z"/>
      <path class="f" d="M87.3,304.7a6.7,6.7,0,0,1,3.2-1.9c1.6-.2,2.9-.2,2.9.4s-2.6.6-3,1.2c2.6.5,4.7-1,5.5-.2s-1.5,4.8-9.2,3.6"/>
      <path class="g" d="M51.5,339.6l3.4,36.8h9.4s4.7-58.4.8-73.7H63.5Z"/>
      <path class="h" d="M42.5,302.7c-3.8,10.5-3,39.6-3,73.7h9.2c7.5-37.7,14.2-63.4,14.8-73.7Z"/>
      <path class="i" d="M47.4,378.6l-.4,1-4.6-.2a2.3,2.3,0,0,0,.4,2.3h9.6C52,379.4,49.6,380.1,47.4,378.6Z"/>
      <path class="i" d="M62.7,378.6l-.4,1-4.5-.2a2.1,2.1,0,0,0,.3,2.3h9.6C67.3,379.4,65,380.1,62.7,378.6Z"/>
    </g>
    <path class="j" d="M240.2,161.2v37.9c-15.2-12.5-38.5-.4-36.4,19.7a22.3,22.3,0,0,0,36.4,14.9v37.9h38.2c-12.3-14.3-2.3-36,15.9-36.9,19.7-.9,30.7,22.1,18,36.9h38.2V174.9a13.7,13.7,0,0,0-13.6-13.7Z"/>
    <g>
      <path class="c" d="M346.1,304.8s15.9,1.1,25.1-3.2,16.2-13.7,16.9-22.6-9.2-10.5-13.3-1.9-5.7,21.7-28.7,24.5Z"/>
      <path class="c" d="M338.1,301.1c.8-.8,2.9.7,5.6.2-.5-.6-3.1-.7-3.1-1.2s1.3-.6,2.9-.4a6.7,6.7,0,0,1,3.2,1.9l.7,3.1C339.6,305.9,337.3,302,338.1,301.1Z"/>
      <path class="k" d="M350.5,271.2v.4H312.3c12.3-14.3,2.3-36-15.9-36.9A22.3,22.3,0,0,0,273,257a22.1,22.1,0,0,0,5.4,14.6H240.2v37.5c13.7-11.3,34.5-2.6,36.4,14.7,2.2,20.2-21.1,32.4-36.4,19.9v37.9h96.7a13.7,13.7,0,0,0,13.6-13.7Z"/>
      <path class="h" d="M377.2,269.2s2.1-6-1.6-10c-6-6.4-14.1,1.9-10.5,4.6S377.2,269.2,377.2,269.2Z"/>
      <path class="f" d="M365.1,262.8s1.1,15,9.3,11c4.5-2.7,1.9-6.3,1.9-6.3,2.8-1.2.2-6.1-2.5-2.9l-2-3.8S369.6,262.7,365.1,262.8Z"/>
      <polygon class="f" points="376.3 267.5 381 272.6 375.5 277.6 370.7 270.2 376.3 267.5"/>
      <path class="c" d="M406.4,310.8s3.1,5.3-5.4,25.5c-3.5,10.6-10.1,42-10.1,42l-3.6-.7s-3.8-38.6,3.5-65.1Z"/>
      <path class="b" d="M380,271.5c3.2-.9,6.9.3,9.6,2.3,5.3,3.9,16,13.8,24.1,34.4s-17.4,16.7-30.2-5-9.1-26.3-6.4-29.5A5.7,5.7,0,0,1,380,271.5Z"/>
      <path class="f" d="M413.7,308.2s4.4,4.3,1.4,26c-.7,11.2,1,43.2,1,43.2h-3.6s-12.5-34-12.3-61.4Z"/>
      <path class="f" d="M346.1,311s15.9,1.1,25.1-3.2,16.2-13.7,16.9-22.6-9.2-10.5-13.3-1.9-5.7,21.7-28.7,24.5Z"/>
      <path class="c" d="M387.4,377.4s-.1,1.5-4.2,2.4a2.7,2.7,0,0,0-1.9,1.9H391s1.2-1-.2-3.7Z"/>
      <path class="c" d="M412.3,376.9s.6,2.1-2.2,2.7-1.7,2.1-1.7,2.1h5l4.4-2.7s.5-1.6-2.1-3Z"/>
      <path class="f" d="M337.7,307.3c.8-.8,2.9.7,5.6.2-.5-.6-3.1-.7-3.1-1.2s1.4-.6,3-.4a6.2,6.2,0,0,1,3.1,1.9l.7,3.1C339.2,312.1,336.9,308.2,337.7,307.3Z"/>
      <path class="l" d="M402.5,332.6s-8.5,35-10,45.7H386s-3.1-49.4,4.8-65.8C412.2,322.9,402.5,332.6,402.5,332.6Z"/>
      <path class="m" d="M411.8,303.8c5.6,5.6,5.7,20.2,4.3,31.7s1.2,40.1,1.2,40.1-.5,0-5.3,1.8c-5-9-8.6-22-10-32.9-3.2-25.2-11.2-32-11.2-32Z"/>
      <path class="b" d="M384.2,297.9l-13.5-7.7s2-16.3,9.3-18.7S394.3,286.3,384.2,297.9Z"/>
      <path class="i" d="M386.4,378.6l.4,1,4.5-.2a2.1,2.1,0,0,1-.3,2.3h-9.6C381.8,379.4,384.1,380.1,386.4,378.6Z"/>
      <path class="i" d="M416.6,376.6l-3.8,2.8-1-.6a3.8,3.8,0,0,1-1.7.8c-2.1.4-1.7,2.1-1.7,2.1h5l4.4-2.7A2.5,2.5,0,0,0,416.6,376.6Z"/>
    </g>
    <g>
      <path class="c" d="M185.7,132.1s-6.3,19.7-20.4,28.2c-4.2,2.6-4.2,13.6,5.4,10.4,7.3-2.4,17.3-27.1,17-38.6Z"/>
      <path class="c" d="M190.9,126.5c-1,0-1.5,2.4-3.5,3.8-.1-.6,1.5-2.4,1.2-2.8s-1.3.5-2.2,1.7a6.5,6.5,0,0,0-.9,3.3l1.7,2.5C193.1,130.7,192,126.6,190.9,126.5Z"/>
      <g>
        <g>
          <path class="c" d="M306.7,107.3s-12.9,11.9-10.3,20.3,7.2,28.1,7.2,28.1l-3.3,1.1s-16.8-24.1-14.9-37.8S299,88.2,299,88.2,313.4,95.2,306.7,107.3Z"/>
          <path class="c" d="M300.2,156.4s.6,2.2-2.2,2.7-1.7,2.1-1.7,2.1h5l4.4-2.7s.5-1.6-2.1-3Z"/>
          <path class="c" d="M301.5,56.2c-4.6-4.5-10.2,1.2-13.5,10s-13.5,13-23.1,6.5l-1.3,2.1s5.3,6.8,16.3,6.9C294.4,81.9,307.1,61.7,301.5,56.2Z"/>
          <path class="g" d="M296.7,86.2s-15,28.8-12.3,42.6l12.2,29,8.1-2.1s-7-22.4-7-31l10.7-20.6Z"/>
          <path class="c" d="M256.7,70.1c1-.6,2.7,1.4,5.4,1.5-.3-.6-2.8-1.4-2.7-1.9s1.5-.2,3,.4a6.1,6.1,0,0,1,2.5,2.6v3.2C257,75.1,255.7,70.7,256.7,70.1Z"/>
          <path class="n" d="M139,120.2c7.4,15.8,29.8,17.3,39.2,2.2l12.2,35.9L226.3,146c-15.1-9.3-13.7-31.8,2.2-39.2,18.3-8.6,37.4,9.5,30.5,28.1l35.8-12.3L263.6,31.1a13.7,13.7,0,0,0-17.3-8.5L154.8,53.8,167,89.7C148.5,82.7,130.4,101.8,139,120.2Z"/>
          <path class="e" d="M282.3,45s-2.8.2-3.2-3.7,5-8.8,12-5c1.3-2.9,5.9-2.3,7.4,4,2,8.3-5.6,11.7-5.6,11.7Z"/>
          <path class="f" d="M281.3,42.2s1,15.1,9.2,11.1c4.6-2.8,1.9-6.4,1.9-6.4,2.9-1.2.2-6.1-2.5-2.8L288,40.3S285.8,42.1,281.3,42.2Z"/>
          <polygon class="f" points="292.4 46.9 296.2 53.3 291.6 57.1 286.8 49.6 292.4 46.9"/>
          <path class="b" d="M301.5,99.4s-16.3-37.1-9.8-44,15.2,3.6,19.4,19l3.7,13.5Z"/>
          <path class="f" d="M301.8,88.4c-2.5,20.3,8,55.2,14.2,68.7l3.3.7s-3.7-34.1-3.3-54.1c.4-16.4-2.6-20.6-2.6-20.6Z"/>
          <path class="f" d="M316,156.9s-.2,1.5-4.2,2.4a2.6,2.6,0,0,0-1.9,1.9h9.6a3.8,3.8,0,0,0-.2-3.6Z"/>
          <path class="f" d="M258.5,79.4c.8-.9,2.9.6,5.5.2-.4-.6-3-.7-3-1.3s1.3-.6,2.9-.3a6.8,6.8,0,0,1,3.2,1.8l.6,3.1C259.9,84.2,257.7,80.2,258.5,79.4Z"/>
          <path class="h" d="M296.3,86.2l16.6-5.4s3.7,4,5.3,20.1,2.8,56.2,2.8,56.2l-7.4-.3Z"/>
          <g>
            <path class="b" d="M298.4,54.8c-4.5-2.5-7.9,1.3-9.6,7.7l10.6,6.3C301.6,62.7,301.5,56.7,298.4,54.8Z"/>
            <path class="f" d="M288.8,62.5a27.7,27.7,0,0,0-1,5.3c-1.1,9.3-9.9,16-20.7,12l-.8,2.6c6.1,4.6,25.4,7.5,33.1-13.6Z"/>
          </g>
        </g>
        <path class="i" d="M297.8,159.1v.6H301l2.9-1.8a1.3,1.3,0,0,1,.4-1.9c1.8,1.3,1.4,2.5,1.4,2.5l-4.4,2.7h-5A1.9,1.9,0,0,1,297.8,159.1Z"/>
        <path class="i" d="M312.4,159.2l.2.6h5.6a2.1,2.1,0,0,1,1.4-1.6c.8,2-.1,3-.1,3h-9.6C310.2,159.6,311.6,159.4,312.4,159.2Z"/>
      </g>
      <path class="c" d="M174.1,191.4H163.7s-7.9,5.7-.9,29.8c6.2,21.3-4.6,45.8-4.6,45.8l3.1,1.7S183.5,237,174.1,191.4Z"/>
      <path class="f" d="M173.2,146s5.1,14.2-4.1,13.8c-5.2-.7-4.2-5-4.2-5-3.1,0-2.6-5.6,1.1-3.7l.3-4.2A11.3,11.3,0,0,0,173.2,146Z"/>
      <polygon class="f" points="164.9 155.3 162.8 165.3 169 164.2 170.4 155.5 164.9 155.3"/>
      <path class="b" d="M164.6,200s-8-32.2,0-37.4,13.9,6.9,14.5,22.8l.5,14.1Z"/>
      <path class="f" d="M192.8,133.6s-6.6,20.7-21.4,28.9a8.2,8.2,0,0,0-3.7,4.1c-1.9,4.6,2.7,8.9,6.3,7,6.8-3.6,21.2-28.5,20.9-40Z"/>
      <path class="f" d="M179.3,191.4H166.1s-4.4,7.2,2,31.8c7.7,29.5,6.7,45.5,6.7,45.5h3.1S185.6,219,179.3,191.4Z"/>
      <path class="f" d="M178,267.5s.2,1.5,4.2,2.4a2.5,2.5,0,0,1,1.9,1.9h-9.6s-1.1-1.4.3-4Z"/>
      <path class="c" d="M162.3,267s-.6,2.1,2.2,2.6,1.7,2.2,1.7,2.2h-5l-4.4-2.8s-.4-1.5,2.2-3Z"/>
      <path class="f" d="M198.2,127.9c-1.1-.1-1.5,2.4-3.6,3.8-.1-.7,1.6-2.5,1.2-2.9s-1.2.5-2.2,1.7a6.3,6.3,0,0,0-.8,3.4l1.6,2.5C200.4,132,199.3,127.9,198.2,127.9Z"/>
      <path class="m" d="M162.8,191.4s-5.4,7.2-2.8,22.5,4.6,21.3,4.6,21.3h17.2s2.3-29.4-2.5-43.8Z"/>
      <path class="h" d="M168,144.2c2.7-.5,6,.4,7.1,3.2s-8.1,3-8.1,3,2.2,5.9-1.3,9.8,1.9,8.4-1.1,13.8-12.2,4.5-12.4-3.7,4.3-12.1,7.7-16.7,3.2-7.9,7.5-9.2Z"/>
      <path class="i" d="M164.8,269.7l-.2.5h-3.1l-2.8-1.8a1.4,1.4,0,0,0-.5-1.9c-1.7,1.3-1.4,2.5-1.4,2.5l4.4,2.8h5A1.7,1.7,0,0,0,164.8,269.7Z"/>
      <path class="i" d="M182.2,269.9l-.6-.2-.2.6h-5.6a2.5,2.5,0,0,0-1.4-1.6,3.1,3.1,0,0,0,.1,3.1h9.6A2.5,2.5,0,0,0,182.2,269.9Z"/>
    </g>
  </g>
</svg>
