<svg xmlns="http://www.w3.org/2000/svg" id="Layer_1" data-name="Layer 1" viewBox="0 0 250 250"><defs><style>.cls-1{fill:#2a13bd;}</style></defs><path class="cls-1" d="M227.44,109.75c-2.11,8-3.7,16.53-6.61,24.6-12.35,34.19-28,66.58-53,93.68-4.15,4.51-8.29,9.15-13.07,12.94-5.88,4.67-8.82,4.74-14.68-.31A162.18,162.18,0,0,1,122,222.22C97.5,193.13,81,159.79,70,123.56a55,55,0,0,1-2.4-10.67c-.25-2.66-.23-6,1.12-8,15.6-24.16,33.17-46.78,54.64-66,19.72-17.69,30.13-17.72,49.65.08,20.55,18.74,37.16,40.88,52.15,64.22C226.26,104.84,226.55,107.09,227.44,109.75Z" transform="translate(-25.35 -25.54)"/><path class="cls-1" d="M161.5,259.51c40.23-33.86,62.77-78.33,79.66-126.8a9.32,9.32,0,0,1,1.4,1.69c9.24,21.54,18.89,43,23.62,66.09,1.29,6.33,1.74,12.84,2.4,19.28.78,7.65-2.1,14.07-8.43,18a84,84,0,0,1-18.82,8.86C215.48,254.84,188.78,258.15,161.5,259.51Z" transform="translate(-25.35 -25.54)"/><path class="cls-1" d="M52.78,132.4c17.35,49.26,40.49,92.92,80.77,127-7.81-.61-15-1-22.06-1.77-20.71-2.39-41.22-6-60.94-12.91a76.33,76.33,0,0,1-16.45-8.13c-6.78-4.44-9.27-11.15-8.67-19.45,1.37-19.05,7.21-36.84,14.42-54.28C43.89,153,48.13,143.33,52.78,132.4Z" transform="translate(-25.35 -25.54)"/></svg>