<?xml version="1.0" encoding="utf-8"?>
<svg id="flatvectors" enable-background="new 0 0 600 450" height="450" viewBox="0 0 600 450" width="600" xmlns="http://www.w3.org/2000/svg"><path d="m136.351 360.855c-84.049 0-106.351-63.123-106.351-135.855s21.726-119.737 65.206-119.737 31.129 43.494 82.003 43.494 78.425-102.757 151.278-102.757 17.467 96.853 81.932 96.853 133.852 5.834 138.581 105.147c3 63 23 120-29 119-96.946-1.864-383.649-6.145-383.649-6.145z" class="edit" fill="#1b90fb" opacity=".1"/><path d="m351.71 125.485s-1.56-2.08-1.82-3.899c-.26-1.82 0-9.878-3.119-15.337s-17.939-4.515-17.949-3.119c-.022 3.119 9.561 1.061 11.444 8.318.502 1.934-1.267 3.805-2.105 3.38-2.228-1.131-3.023-6.695-4.908-6.5-1.428.148-2.405 9.163 1.3 12.868 2.612 2.612 8.838 8.058 10.528 12.608 1.69 4.549 8.21-5.374 6.629-8.319z" fill="#f1b282"/><path d="m355.903 124.935c-.467-.675-1.391-.847-2.069-.384l-12.404 8.459c-.766.522-.967 1.564-.452 2.334 6.177 9.229 31.245 51.263 42.882 53.69l12.266-18.737c-32.285-33.643-32.06-33.565-40.223-45.362z" class="edit" fill="#1b90fb"/><path d="m355.903 124.935c-.467-.675-1.391-.847-2.069-.384l-12.404 8.459c-.766.522-.967 1.564-.452 2.334 6.177 9.229 31.245 51.263 42.882 53.69l12.266-18.737c-32.285-33.643-32.06-33.565-40.223-45.362z" opacity=".15"/><path d="m405.885 162.423c-5.551 2.632-16.402 1.566-25.907-.162-3.331-.607-6.72.7-8.776 3.384-2.055 2.696-2.44 6.303-.991 9.366l24.172 51.137-51.137 24.172c-3.063 1.449-6.67 1.064-9.367-1.003-2.683-2.056-3.991-5.445-3.384-8.776 1.729-9.493 2.795-20.344.162-25.907-7.101-15.024-28.101-20.013-46.887-11.136-18.798 8.89-28.262 28.273-21.16 43.31 2.619 5.552 11.688 11.623 20.118 16.309 2.96 1.657 4.757 4.811 4.647 8.196-.122 3.386-2.116 6.42-5.179 7.869l-2.34 1.109-46.578 22.013-2.218 1.05-64.334-136.095c-7.114-15.035-.689-32.984 14.346-40.098l132.957-62.854 2.696-1.273.441-.207 24.184 51.136c1.437 3.064 4.47 5.058 7.856 5.18 3.385.11 6.551-1.688 8.196-4.647 4.686-8.43 10.757-17.499 16.309-20.118 15.035-7.114 34.42 2.362 43.31 21.16 8.876 18.784 3.9 39.783-11.136 46.885z" fill="#355aa2"/><path d="m371.525 371.148-1.748 8.145s.275 4.073 7.38 4.679c7.105.607 9.618-3.033 9.618-3.033s2.08-9.791 1.993-10.485-17.243.694-17.243.694z" fill="#f1b282"/><path d="m372.604 377.099c-.718-.787-1.888-.955-2.801-.405-3.195 1.926-9.988 6.01-10.399 6.163-3.615 1.35-13.268 3.472-13.263 7.106.006 3.809 27.983 2.772 38.223 2.264 2.076-.103 3.717-1.802 3.744-3.881l.106-8.424c.005-.429-.218-.828-.587-1.047s-.826-.226-1.201-.017c-1.713.96-4.376 2.205-6.817 2.315-2.714.125-5.49-2.414-7.005-4.074z" fill="#0b224e"/><path d="m435.547 343.634 6.081 5.694s3.632 1.862 7.812-3.916 2.355-9.806 2.355-9.806-7.321-6.826-7.96-7.109c-.638-.282-8.288 15.137-8.288 15.137z" fill="#f1b282"/><path d="m441.203 345.775c-1.045.21-1.791 1.127-1.79 2.192.005 3.73.006 11.657-.074 12.088-.705 3.794-3.859 13.161-.741 15.028 3.268 1.957 16.79-22.557 21.629-31.595.981-1.833.37-4.115-1.398-5.208l-7.166-4.43c-.365-.226-.822-.239-1.2-.037-.378.203-.619.592-.633 1.021-.06 1.962-.364 4.886-1.527 7.036-1.29 2.389-4.896 3.461-7.1 3.905z" fill="#0b224e"/><path d="m384.09 252.469s-14.037 28.335-16.637 42.632c-2.539 13.965 36.589 40.827 65.782 50.789 1.189.406 2.502-.091 3.12-1.185l11.153-19.733c.737-1.303.337-2.955-.913-3.778l-47.168-31.032 12.738-37.693z" fill="#0b224e"/><path d="m426.462 245.19c.52 17.417-16.576 55.369-18.296 72.266-1.484 14.581-11.366 48.565-14.048 57.608-.377 1.27-1.659 2.047-2.958 1.789l-19.711-3.91c-.827-.164-1.548-.667-1.987-1.387s-.556-1.591-.324-2.402c2.612-9.134 10.078-35.475 11.573-43.38 1.82-9.618-.78-50.967 4.679-70.707 5.459-19.738 41.072-9.877 41.072-9.877z" fill="#102b5e"/><path d="m348.349 241.643s-9.484-1.621-13.842-1.03-9.047 1.513-8.868 2.609c.18 1.096 9.943 1.978 9.943 1.978s-1.985 3.316-6.267 3.524-7.035.721-7.212 1.614 12.348 5.047 16.841 3.118c4.493-1.928 13.685-4.34 13.685-4.34z" fill="#f1b282"/><path d="m387.771 166.619s-.863-3.634-1.524-6.154c-1.343-5.117-4.974.835-8.588-1.277-1.258-.735-2.671-5.956-3.563-6.478-.928-.542-2.935 1.822-3.393-1.266-.504-3.4-.854-15.192 2.101-19.924 3.194-5.114 17.192-9.195 21.228-3.127s6.884 33.218 6.884 33.218z" fill="#f1b282"/><path d="m388.633 142.74c-2.474 1.426-.205-7.379-3.082-8.253s-17.471 7.028-19.984-2.494 7.496-15.61 12.449-16.91 24.209-5.131 28.958 12.968-7.084 23.444-8.773 22.054c-1.688-1.389 1.133-13.532-9.568-7.365z" fill="#0b224e"/><path d="m400.987 157.414c-1.414-1.06-14.557 3.377-15.077 4.808s-1.646 10.529.78 9.836 17.59-9.532 17.243-10.485c-.346-.953-1.906-3.379-2.946-4.159z" class="edit" fill="#1b90fb"/><path d="m400.987 157.414c-1.414-1.06-14.557 3.377-15.077 4.808s-1.646 10.529.78 9.836 17.59-9.532 17.243-10.485c-.346-.953-1.906-3.379-2.946-4.159z" fill="#fff" opacity=".15"/><path d="m378.371 260.788c1.781 8.191 23.276-3.66 34.054-5.199 10.918-1.56 23.136 4.419 25.735-7.279 2.6-11.698-12.998-29.374-14.817-41.332-3.379-30.154-15.597-43.932-19.756-44.712s-17.417 8.963-17.417 8.963c-10.658 22.481-1.82 40.947-1.82 52.916 0 3.621-.785 7.31-1.807 11.024-.868 3.148-1.905 6.317-2.784 9.478-1.505 5.441-2.534 10.863-1.388 16.141z" class="edit" fill="#1b90fb"/><path d="m379.759 244.647c9.584-2.337 29.731-8.147 34.051-16.528 5.719-11.09-8.924-36.999-8.924-36.999 4.419 20.536 2.34 43.152-14.037 44.207-2.485.161-5.303.086-8.305-.159-.869 3.149-1.906 6.318-2.785 9.479z" opacity=".15"/><path d="m347.576 251.777c.793.66 36.349-10.62 50.22-18.544s7.091-42.112 7.091-42.112l-22.215 3.932.96 18.216s-35.177 21.132-35.907 22.331c-2.718 4.442-.952 15.509-.149 16.177z" class="edit" fill="#1b90fb"/><path d="m198.888 215.666c3.385.361 4.336 5.821 5.664 7.178s3.416 3.18 3.591 4.43-2.994 1.899-2.084 4.854 1.765 6.692-2.63 8.645-2.763 5.907-2.081 9.838-1.614 5.287-3.209 5.561c-1.594.274-18.968-1.97-19.508-13.026-.457-9.365.723-20.776 7.623-24.444s9.774-3.341 12.634-3.036z" fill="#f1b282"/><path clip-rule="evenodd" d="m237.17 392.362h-8.091c-1.125-2.343-1.871-4.351-2.238-6.025-.551-2.51-1.379-7.183-.551-10.572s10.358-3.064 11.561-1.979c1.202 1.085 1.007 3.911 5.77 6.441 2.878 1.528 8.204 2.308 15.979 5.706 1.515.662 2.494 2.158 2.494 3.811 0 1.514-1.213 2.748-2.726 2.775-8.462.152-13.729.229-15.802.229-2.248-.815-4.38-1.819-6.396-3.012z" fill="#03193f" fill-rule="evenodd"/><path d="m239.566 317.483c-3.883-8.238-58.596-18.141-65.651-15.838-7.055 2.304-10.654 6.479-10.654 12.67 0 8.637 24.409 21.401 54.169 19.165 1.258 14.345 4.068 42.695 6.833 45.461 2.038 2.038 20.147-.174 20.147-2.843 0-8.161-.393-49.172-4.844-58.615z" fill="#0b224e"/><path d="m151.211 371.638s-16.134.325-18.163 12.1l-2.321-.142 5.583-20.98 13.205-1.241z" fill="#f1b282"/><path clip-rule="evenodd" d="m134.449 361.779c2.443.127 3.884.239 6.864.105 1.119-.05-.894 2.393-1.604 7.346-.614 4.286 3.845 5.123 2.976 5.678-1.299.831-1.783.505-5.306 4.241-2.115 2.244-5.635 6.253-10.56 12.029-1.026 1.204-2.656 1.705-4.182 1.287-1.389-.381-2.217-1.806-1.859-3.201 1.863-7.271 3.053-11.852 3.572-13.743 1.314-1.859 2.773-3.564 4.376-5.115l-2.41-.661 2.037-7.429c2.436-.442 4.467-.621 6.096-.537z" fill="#03193f" fill-rule="evenodd"/><path d="m200.624 316.187s-32.08-5.783-33.691-2.016c-2.703 6.322 2.824 27.659 8.055 40.672-15.377.744-35.086 2.616-35.766 3.729-1.059 1.735 8.425 19.252 10.12 20.227s42.103-.631 49.481-4.881c6.997-4.028 1.801-57.731 1.801-57.731z" fill="#102b5e"/><path d="m238.241 292.592s7.071-4.067 11.138-3.904 5.694-.421 5.531 1.009c-.163 1.431-5.043 3.22-6.182 2.895s11.551-.813 11.713 1.952c.163 2.766-4.067 9.062-9.11 8.435-5.043-.626-14.642-5.019-14.642-5.019z" fill="#f1b282"/><path d="m200.701 256.292s1.866-8.207.858-9.503-12.526-4.751-13.822-4.175-2.088 8.639-2.088 8.639z" class="edit" fill="#1b90fb"/><path d="m200.701 256.292s1.866-8.207.858-9.503-12.526-4.751-13.822-4.175-2.088 8.639-2.088 8.639z" opacity=".15"/><path d="m239.425 290.559c-2.16-1.296-19.293.864-32.107-24.044-3.764-8.298-5.342-11.615-7.302-13.574-.55-.55-10.097-6.99-12.279-6.151-1.872.72-9.585 7.775-10.912 19.725s-18.266 30.183-15.436 48.377c1.872 12.034 11.95 5.471 19.437 5.183 5.372-.207 15.771 9.935 19.836 5.903 2.233-2.215 2.803-17.511 2.698-31.587 6.76 6.112 17.203 10.888 33.33 10.566 2.879-.72 4.895-13.102 2.735-14.398z" class="edit" fill="#1b90fb"/><path d="m201.906 322.761c-5.555-5.393-21.37-23.886-10.671-51.135 0 0 .102 12.088 12.047 22.698.026.024.052.048.078.071.083 10.972-.247 22.686-1.454 28.366z" opacity=".15"/><path d="m217.436 333.521v-.023l.393-.045 8.07-1.01h.045l-6.555 20.787z" fill="#03193f"/><path d="m146.991 286.096c10.393 10.392 32.075.576 35.618-12.814 3.544-13.39 1.044-23.801 4.983-28.148s5.255-4.463 5.255-7.199-5.831-9.503-3.527-12.238 16.557-5.975 14.11-12.886c-2.448-6.911-19.231-9.647-28.765 2.16s-5.43 19.869-10.037 29.516-35.507 23.739-17.637 41.609z" fill="#0b224e"/></svg>
